<svg width="512" height="512" viewBox="0 0 512 512" fill="none" xmlns="http://www.w3.org/2000/svg">
  <rect width="512" height="512" rx="128" fill="#0A1830"/>
  <circle cx="391" cy="127" r="82" fill="#123A74"/>
  <circle cx="112" cy="400" r="98" fill="#1B5BAF" fill-opacity="0.55"/>
  <path d="M154 285C154 218.726 207.726 165 274 165C340.274 165 394 218.726 394 285V287C394 353.274 340.274 407 274 407C207.726 407 154 353.274 154 287V285Z" fill="#7DD3FC"/>
  <path d="M129 274C129 230.922 163.922 196 207 196H320C363.078 196 398 230.922 398 274C398 317.078 363.078 352 320 352H207C163.922 352 129 317.078 129 274Z" fill="#93E05B"/>
  <path d="M108 254C108 214.788 139.788 183 179 183H296C335.212 183 367 214.788 367 254C367 293.212 335.212 325 296 325H179C139.788 325 108 293.212 108 254Z" fill="#A3E635"/>
  <path d="M169 216C169 192.804 187.804 174 211 174H330C353.196 174 372 192.804 372 216V216C372 239.196 353.196 258 330 258H211C187.804 258 169 239.196 169 216V216Z" fill="#BEF264"/>
  <circle cx="346" cy="222" r="42" fill="#F8FAFC"/>
  <circle cx="332" cy="216" r="12" fill="#0F172A"/>
  <circle cx="245" cy="226" r="18" fill="#65A30D" fill-opacity="0.35"/>
  <circle cx="205" cy="278" r="18" fill="#65A30D" fill-opacity="0.35"/>
  <circle cx="260" cy="301" r="18" fill="#65A30D" fill-opacity="0.35"/>
  <path d="M355 255C354.922 286.167 328.394 311.379 291.056 311.379H225.73C204.653 311.379 187.56 294.286 187.56 273.209V271.094C187.56 250.017 204.653 232.925 225.73 232.925H290.969C326.668 232.925 355 251.982 355 255Z" fill="#84CC16"/>
  <path d="M330 244C330 253.255 322.494 260.761 313.239 260.761C303.984 260.761 296.478 253.255 296.478 244" stroke="#0F172A" stroke-width="8" stroke-linecap="round"/>
</svg>